<?xml version="1.0" standalone="no"?>
<!DOCTYPE svg PUBLIC "-//W3C//DTD SVG 20010904//EN"
 "http://www.w3.org/TR/2001/REC-SVG-20010904/DTD/svg10.dtd">
<svg version="1.0" xmlns="http://www.w3.org/2000/svg"
 width="232.000000pt" height="217.000000pt" viewBox="0 0 232.000000 217.000000"
 preserveAspectRatio="xMidYMid meet">

<g transform="translate(0.000000,217.000000) scale(0.100000,-0.100000)"
fill="#000000" stroke="none">
<path d="M968 1932 l-797 -2 -34 -108 -35 -107 36 -35 c68 -67 75 -97 83 -360
9 -277 26 -386 91 -547 48 -121 107 -215 198 -316 107 -117 265 -213 506 -306
l131 -51 64 29 c35 16 112 50 171 76 124 54 259 139 339 213 61 56 161 194
202 280 14 29 37 90 51 136 49 157 58 227 65 496 6 235 8 258 28 296 12 22 35
53 52 70 l30 29 -33 105 -32 105 -160 0 c-87 0 -518 -1 -956 -3z m1114 -112
l28 -83 -32 -35 c-65 -75 -72 -106 -70 -313 4 -364 -49 -586 -196 -809 -110
-169 -233 -252 -622 -421 l-45 -20 -110 41 c-135 51 -328 151 -400 207 -77 61
-196 201 -237 280 -55 106 -104 248 -123 358 -11 62 -20 186 -24 325 -6 205
-8 229 -29 271 -12 25 -35 58 -51 73 -32 30 -32 27 14 158 l17 48 901 0 c495
0 902 2 904 3 2 2 13 3 25 2 18 -1 27 -16 50 -85z"/>
<path d="M1905 1860 c-10 -11 -16 -22 -13 -25 3 -3 13 4 23 15 10 11 16 22 13
25 -3 3 -13 -4 -23 -15z"/>
<path d="M1933 1840 c-46 -27 -41 -34 5 -8 46 27 48 28 36 28 -5 0 -24 -9 -41
-20z"/>
<path d="M1827 1813 c-8 -10 -18 -30 -22 -45 -10 -40 -112 -76 -255 -92 -19
-2 2 -3 47 -2 46 0 83 4 83 7 0 4 19 11 43 17 l42 11 -34 -29 c-19 -16 -71
-48 -115 -70 l-81 -40 -13 30 c-7 17 -10 35 -7 41 4 5 1 9 -5 9 -7 0 -10 7 -7
15 4 8 2 17 -3 20 -15 9 -12 -20 6 -76 9 -27 21 -49 27 -49 27 0 178 84 224
125 29 26 57 44 62 41 15 -10 33 22 35 64 3 44 -3 49 -27 23z m8 -38 c-2 -33
-15 -45 -15 -13 0 20 7 38 14 38 1 0 1 -11 1 -25z"/>
<path d="M1180 1788 c-25 -26 -21 -75 7 -95 25 -19 77 -16 96 5 22 25 21 75
-1 95 -27 24 -77 21 -102 -5z m88 -4 c22 -15 29 -48 14 -71 -14 -22 -67 -27
-85 -8 -20 19 -21 35 -5 70 13 29 42 33 76 9z"/>
<path d="M1943 1803 c9 -2 25 -2 35 0 9 3 1 5 -18 5 -19 0 -27 -2 -17 -5z"/>
<path d="M553 1793 c-39 -8 -66 -52 -60 -101 5 -50 28 -78 68 -87 51 -11 124
43 89 65 -22 14 -40 12 -40 -5 0 -26 -49 -18 -62 10 -22 48 25 98 59 64 11
-11 53 -3 53 10 0 27 -64 53 -107 44z"/>
<path d="M731 1791 c-32 -9 -45 -32 -37 -64 4 -19 17 -29 48 -39 24 -8 43 -21
43 -29 0 -20 -36 -24 -47 -5 -9 16 -58 23 -58 8 0 -18 32 -50 56 -56 36 -9 92
11 99 35 15 47 -3 69 -77 93 -24 7 -23 26 2 26 11 0 20 -4 20 -10 0 -5 11 -10
25 -10 27 0 34 21 13 37 -19 15 -60 21 -87 14z"/>
<path d="M317 1783 c-4 -3 -7 -44 -7 -90 l0 -83 75 0 c68 0 75 2 75 20 0 17
-7 20 -45 20 -38 0 -45 3 -45 20 0 17 7 20 43 20 32 0 44 4 44 15 0 11 -12 15
-44 15 -32 0 -43 4 -43 15 0 11 12 15 45 15 38 0 45 3 45 20 0 18 -7 20 -68
20 -38 0 -72 -3 -75 -7z"/>
<path d="M870 1717 c0 -94 12 -112 75 -111 25 1 51 6 58 13 7 7 14 48 16 91 3
75 2 80 -18 80 -18 0 -20 -7 -23 -72 -3 -70 -4 -73 -28 -73 -24 0 -25 3 -28
73 -3 69 -4 72 -27 72 -24 0 -25 -2 -25 -73z"/>
<path d="M1928 1773 c12 -2 30 -2 40 0 9 3 -1 5 -23 4 -22 0 -30 -2 -17 -4z"/>
<path d="M1920 1752 c8 -5 26 -13 40 -16 17 -5 20 -4 10 2 -8 5 -26 13 -40 16
-17 5 -20 4 -10 -2z"/>
<path d="M1252 1625 c-181 -61 -377 -149 -367 -165 3 -5 0 -7 -8 -4 -18 7
-103 -53 -136 -96 -28 -37 -19 -34 49 19 25 18 44 38 42 43 -1 5 2 7 7 4 5 -3
29 5 53 19 77 43 156 65 231 65 113 0 158 -33 173 -127 13 -83 -45 -250 -116
-335 l-31 -37 -49 29 c-40 24 -49 26 -54 13 -11 -27 -6 -33 27 -33 l32 -1 -35
-20 c-34 -20 -24 -18 32 4 45 18 46 -2 2 -41 -83 -76 -143 -127 -151 -129 -4
-1 -32 -12 -60 -26 l-53 -24 113 -6 c110 -5 193 -25 209 -50 8 -12 11 -57 5
-57 -2 0 -39 9 -82 20 -88 23 -145 25 -230 9 -57 -10 -220 3 -237 19 -4 4 3
20 15 35 20 25 25 27 50 18 31 -12 80 -14 115 -4 23 6 23 7 17 114 l-7 108 47
-25 c55 -27 99 -30 135 -8 l25 15 -25 -7 c-51 -13 -74 -6 -111 33 -52 56 -79
136 -79 231 0 57 5 84 17 102 14 20 14 22 2 13 -9 -7 -30 -41 -48 -76 -35 -69
-45 -162 -22 -205 11 -21 10 -24 -19 -35 -19 -7 -29 -17 -27 -27 3 -15 10 -16
38 -5 13 5 17 -5 23 -56 3 -34 6 -87 6 -117 l0 -55 -44 5 c-24 3 -58 13 -76
22 -18 9 -34 15 -35 14 -33 -44 -145 -221 -145 -229 0 -9 76 -11 323 -5 299 6
324 8 349 26 34 25 37 25 64 -1 21 -20 26 -20 205 -9 101 6 235 13 297 17 61
3 112 8 112 10 0 12 -115 165 -131 174 -12 6 -19 20 -19 38 0 37 -40 153 -83
239 -35 70 -84 152 -91 152 -2 0 -20 -25 -40 -55 l-37 -56 73 -83 c41 -46 88
-112 106 -147 l33 -64 -53 -8 c-29 -4 -82 -11 -118 -16 l-65 -8 52 -2 c28 0
74 4 101 10 50 12 122 5 122 -11 0 -18 -106 -40 -235 -49 -73 -5 -150 -16
-175 -26 -83 -30 -80 -30 -80 3 0 26 5 32 35 42 20 6 66 15 103 20 l67 7 -55
1 c-31 1 -79 -7 -110 -18 -30 -10 -59 -15 -65 -11 -19 16 -86 33 -150 39 l-65
7 75 44 c115 68 276 193 344 268 80 87 129 186 139 278 14 132 -21 295 -63
295 -11 0 -93 -25 -183 -55z m212 -2 c26 -71 32 -213 12 -292 -13 -53 -69
-161 -83 -161 -2 0 -1 5 3 12 4 7 3 8 -5 4 -6 -4 -9 -12 -5 -17 8 -14 -26 -50
-39 -42 -6 4 -7 1 -3 -6 5 -8 -5 -24 -25 -42 -19 -16 -45 -40 -59 -53 -51 -47
-130 -97 -141 -90 -7 4 -9 3 -6 -3 6 -10 -44 -53 -61 -53 -5 0 -15 -7 -22 -15
-7 -8 -18 -15 -24 -15 -6 0 3 12 19 25 48 40 73 66 137 138 164 189 196 426
66 493 -23 12 -52 15 -122 12 -50 -3 -100 -8 -111 -12 -11 -4 9 7 45 25 88 42
298 112 313 103 7 -4 8 -3 4 2 -7 7 46 30 78 33 6 1 19 -20 29 -46z m-514
-138 c-14 -8 -29 -14 -35 -14 -5 0 1 6 15 14 14 8 30 14 35 14 6 0 -1 -6 -15
-14z m556 -311 c-3 -8 0 -13 7 -11 7 1 11 -6 11 -15 -1 -10 2 -16 6 -13 18 11
130 -259 130 -311 0 -29 -16 -12 -43 45 -15 33 -39 73 -53 90 -14 17 -23 35
-20 40 4 5 1 13 -5 17 -8 5 -10 2 -4 -7 7 -13 -9 2 -78 73 l-27 27 23 28 c13
15 27 36 30 46 4 10 12 15 18 12 6 -4 8 -13 5 -21z m-672 -143 c10 -18 14 -31
9 -28 -16 10 -54 96 -59 134 -4 33 -2 30 14 -17 10 -30 26 -70 36 -89z m-228
-290 c-15 -22 -37 -48 -48 -58 -12 -10 -2 10 21 45 24 35 45 61 48 58 3 -3 -6
-23 -21 -45z m1087 -5 c-3 -5 -1 -6 5 -2 5 3 20 -10 32 -29 12 -20 28 -42 36
-50 17 -17 7 -18 -246 -36 -306 -21 -286 -21 -306 6 -14 19 -22 22 -41 14 -13
-5 -22 -5 -19 -1 3 5 -1 9 -8 9 -8 0 -12 -6 -9 -13 10 -28 -38 -35 -230 -36
-106 0 -241 -2 -300 -5 l-108 -4 39 40 c36 37 61 54 48 33 -3 -5 1 -9 9 -9 13
0 12 4 -2 19 -9 10 -14 18 -10 18 3 0 12 3 21 6 9 3 16 1 16 -6 0 -6 -4 -8
-10 -5 -18 11 -11 -1 12 -21 19 -15 20 -16 9 -1 -10 12 -10 17 -2 17 7 0 10 4
6 9 -3 6 8 6 27 0 43 -13 271 -8 281 5 4 7 10 8 15 1 4 -5 33 -11 64 -12 31
-1 80 -9 108 -17 51 -15 53 -15 131 15 44 17 86 28 93 26 8 -3 17 -3 20 1 4 3
48 7 97 9 50 1 113 9 140 18 27 9 53 14 59 10 6 -4 10 -3 9 2 -3 20 2 27 10
13 6 -8 7 -18 4 -24z"/>
<path d="M1474 1113 c2 -10 6 -17 10 -16 15 3 16 11 2 22 -12 10 -14 9 -12 -6z"/>
<path d="M1523 693 c9 -2 25 -2 35 0 9 3 1 5 -18 5 -19 0 -27 -2 -17 -5z"/>
<path d="M1440 675 c0 -9 -9 -15 -22 -15 -12 0 -19 -3 -15 -6 11 -11 64 7 64
21 0 8 -6 15 -14 15 -7 0 -13 -7 -13 -15z"/>
<path d="M1267 674 c-8 -9 1 -24 14 -24 6 0 8 4 5 9 -4 5 0 12 6 14 9 4 8 6
-3 6 -9 1 -19 -2 -22 -5z"/>
<path d="M1710 665 c15 -18 -1 -20 -19 -2 -10 10 -11 9 -6 -5 6 -15 45 -27 45
-14 0 14 -14 36 -22 36 -6 0 -5 -6 2 -15z"/>
<path d="M848 663 c6 -2 18 -2 25 0 6 3 1 5 -13 5 -14 0 -19 -2 -12 -5z"/>
<path d="M995 660 c-19 -8 -19 -9 3 -9 12 -1 22 4 22 9 0 6 -1 10 -2 9 -2 0
-12 -4 -23 -9z"/>
<path d="M1320 659 c0 -5 9 -9 20 -9 11 0 20 2 20 4 0 2 -9 6 -20 9 -11 3 -20
1 -20 -4z"/>
<path d="M780 650 c0 -5 5 -10 10 -10 6 0 10 5 10 10 0 6 -4 10 -10 10 -5 0
-10 -4 -10 -10z"/>
<path d="M698 643 c7 -3 16 -2 19 1 4 3 -2 6 -13 5 -11 0 -14 -3 -6 -6z"/>
<path d="M600 630 l-45 -7 40 -1 c22 0 49 3 60 8 23 10 9 10 -55 0z"/>
<path d="M998 633 c12 -2 32 -2 45 0 12 2 2 4 -23 4 -25 0 -35 -2 -22 -4z"/>
<path d="M1246 632 c-3 -6 -1 -14 5 -17 15 -10 25 3 12 16 -7 7 -13 7 -17 1z"/>
<path d="M1368 633 c7 -3 16 -2 19 1 4 3 -2 6 -13 5 -11 0 -14 -3 -6 -6z"/>
<path d="M808 613 c6 -2 18 -2 25 0 6 3 1 5 -13 5 -14 0 -19 -2 -12 -5z"/>
<path d="M968 613 c7 -3 16 -2 19 1 4 3 -2 6 -13 5 -11 0 -14 -3 -6 -6z"/>
<path d="M905 1320 c10 -11 20 -20 23 -20 3 0 -3 9 -13 20 -10 11 -20 20 -23
20 -3 0 3 -9 13 -20z"/>
<path d="M946 1265 c24 -39 24 -40 24 -28 0 6 -9 21 -21 34 l-20 24 17 -30z"/>
<path d="M970 1215 c0 -5 5 -17 10 -25 5 -8 10 -10 10 -5 0 6 -5 17 -10 25 -5
8 -10 11 -10 5z"/>
<path d="M991 1154 c0 -11 3 -14 6 -6 3 7 2 16 -1 19 -3 4 -6 -2 -5 -13z"/>
<path d="M1002 1100 c0 -19 2 -27 5 -17 2 9 2 25 0 35 -3 9 -5 1 -5 -18z"/>
<path d="M1002 1020 c0 -14 2 -19 5 -12 2 6 2 18 0 25 -3 6 -5 1 -5 -13z"/>
<path d="M955 312 c-3 -3 -5 -14 -5 -24 0 -12 7 -18 23 -18 18 0 19 2 7 10
-10 6 -11 10 -2 10 6 0 12 6 12 13 0 13 -25 19 -35 9z"/>
<path d="M1154 309 c-4 -7 0 -17 9 -24 9 -7 15 -15 12 -19 -3 -3 0 -2 6 3 13
11 8 43 -8 48 -6 2 -15 -1 -19 -8z m21 -9 c3 -5 1 -10 -4 -10 -6 0 -11 5 -11
10 0 6 2 10 4 10 3 0 8 -4 11 -10z"/>
<path d="M1206 311 c-7 -10 0 -47 7 -43 4 1 12 2 17 2 16 0 12 37 -5 43 -8 4
-16 3 -19 -2z"/>
<path d="M1260 309 c-11 -8 -12 -12 -2 -16 6 -2 12 -9 12 -14 0 -6 -5 -7 -12
-3 -7 4 -8 3 -4 -4 7 -11 37 -6 35 7 -3 27 -15 39 -29 30z"/>
<path d="M1050 291 c0 -11 4 -22 9 -25 5 -3 9 6 9 19 0 14 -4 25 -9 25 -5 0
-9 -9 -9 -19z"/>
<path d="M1117 290 c3 -11 7 -20 9 -20 2 0 4 9 4 20 0 11 -4 20 -9 20 -5 0 -7
-9 -4 -20z"/>
<path d="M1010 280 c6 -11 15 -18 20 -15 13 8 0 35 -16 35 -12 0 -12 -4 -4
-20z"/>
</g>
</svg>
