<?xml version="1.0" standalone="no"?>
<!DOCTYPE svg PUBLIC "-//W3C//DTD SVG 20010904//EN"
 "http://www.w3.org/TR/2001/REC-SVG-20010904/DTD/svg10.dtd">
<svg version="1.0" xmlns="http://www.w3.org/2000/svg"
 width="800.000000pt" height="800.000000pt" viewBox="0 0 800.000000 800.000000"
 preserveAspectRatio="xMidYMid meet">

<g transform="translate(0.000000,800.000000) scale(0.100000,-0.100000)"
fill="#000000" stroke="none">
<path d="M7677 4679 c-22 -13 -47 -68 -47 -102 0 -46 55 -71 102 -46 22 12 48
66 48 102 0 46 -58 72 -103 46z"/>
<path d="M7568 4267 c-76 -41 -168 -112 -168 -129 0 -17 37 -7 92 28 94 58 99
39 29 -125 -148 -348 -191 -452 -191 -461 0 -5 11 -17 25 -26 22 -15 32 -15
68 -4 133 40 267 150 267 220 0 6 -21 -7 -47 -28 -104 -87 -163 -113 -163 -74
0 9 39 110 86 222 138 327 155 373 149 398 -9 35 -58 28 -147 -21z"/>
<path d="M461 4229 c-66 -11 -148 -57 -192 -107 l-33 -37 343 -3 c292 -2 347
0 374 13 42 21 68 57 74 106 l6 39 -259 -1 c-143 -1 -283 -5 -313 -10z"/>
<path d="M1140 4214 c0 -40 27 -88 63 -109 30 -19 55 -20 394 -23 l361 -3 -5
22 c-10 38 -94 116 -138 128 -25 7 -159 11 -357 11 l-318 0 0 -26z"/>
<path d="M2327 4230 c-68 -12 -135 -47 -187 -99 l-45 -46 232 -3 c128 -1 337
-1 463 0 l231 3 -41 43 c-50 52 -117 87 -195 101 -66 12 -385 13 -458 1z"/>
<path d="M3285 4233 c-26 -7 -82 -49 -93 -71 -5 -9 -12 -32 -15 -49 l-6 -33
214 0 214 0 -73 73 c-50 51 -83 76 -106 80 -36 8 -104 7 -135 0z"/>
<path d="M3945 4233 c-69 -15 -105 -51 -120 -120 l-7 -33 96 0 96 0 0 80 c0
87 -1 87 -65 73z"/>
<path d="M4220 4233 c-56 -18 -100 -76 -100 -131 l0 -22 385 0 c441 0 442 0
475 72 11 24 20 53 20 66 l0 22 -382 -1 c-211 0 -390 -3 -398 -6z"/>
<path d="M5217 4226 c-51 -19 -75 -42 -87 -85 -17 -62 -18 -61 80 -61 l90 0 0
80 c0 76 -1 80 -22 80 -13 -1 -40 -7 -61 -14z"/>
<path d="M5697 4230 c-71 -12 -147 -53 -196 -105 l-42 -45 348 0 c327 0 350 1
380 20 39 23 59 53 67 103 l7 37 -258 -1 c-142 -1 -280 -5 -306 -9z"/>
<path d="M6377 4208 c3 -18 12 -45 19 -59 33 -66 61 -70 462 -67 l343 3 -30
47 c-17 26 -49 60 -73 75 l-43 28 -342 3 -343 3 7 -33z"/>
<path d="M220 4002 c-6 -2 -10 -87 -10 -233 l0 -228 33 5 c17 3 52 16 76 28
56 27 69 61 70 178 l1 87 238 3 c204 3 242 5 269 21 42 22 63 56 70 108 l6 41
-371 -3 c-205 -2 -376 -5 -382 -7z"/>
<path d="M1144 4001 c-2 -2 -4 -107 -4 -233 0 -214 1 -229 18 -224 9 3 36 10
59 16 75 19 102 65 108 183 2 45 4 85 5 90 0 4 39 7 88 7 l87 0 135 -136 c74
-75 145 -140 158 -145 40 -15 92 -10 133 13 22 12 39 24 39 28 0 3 -47 52
-105 110 -58 58 -105 110 -105 116 0 6 17 16 38 22 20 7 51 21 69 32 34 20 96
97 91 112 -3 8 -806 17 -814 9z"/>
<path d="M2075 3995 c-19 -63 -4 -171 34 -255 29 -64 104 -136 170 -162 51
-20 73 -22 266 -23 179 0 219 3 273 19 139 43 223 170 225 341 1 41 -1 77 -5
80 -4 4 -46 7 -94 7 l-87 1 -1 -85 c-1 -77 -4 -89 -29 -122 -52 -67 -92 -80
-257 -80 -169 -1 -208 5 -250 41 -49 40 -64 79 -65 166 l-2 78 -88 2 c-51 1
-89 -2 -90 -8z"/>
<path d="M3174 4001 c-8 -8 -4 -461 4 -461 32 0 113 34 135 58 40 41 47 80 47
249 l0 152 -91 3 c-50 2 -93 1 -95 -1z"/>
<path d="M3434 3994 c8 -22 273 -361 312 -400 61 -61 130 -68 198 -21 54 38
66 83 66 264 l0 162 -91 3 c-50 2 -93 1 -95 -1 -2 -2 -4 -53 -4 -113 0 -62 -4
-108 -10 -108 -5 0 -22 16 -37 36 -15 20 -54 69 -86 109 l-58 74 -100 3 c-68
2 -98 0 -95 -8z"/>
<path d="M4464 4001 c-2 -2 -4 -107 -4 -232 l0 -228 33 5 c17 4 52 15 76 27
65 30 74 59 79 259 l4 167 -92 3 c-50 2 -94 1 -96 -1z"/>
<path d="M5120 3998 c0 -11 0 -436 0 -447 0 -5 23 -4 53 3 115 27 127 54 127
280 l0 165 -90 3 c-50 2 -90 0 -90 -4z"/>
<path d="M6380 4002 c-10 -4 -15 -444 -5 -454 4 -3 25 -2 48 3 103 22 127 56
136 187 l6 97 88 3 89 3 131 -135 c73 -74 145 -140 160 -145 49 -19 99 -13
141 15 l38 26 -113 114 c-105 106 -112 115 -90 121 63 16 127 60 159 107 17
26 32 51 32 55 0 6 -801 9 -820 3z"/>
<path d="M5435 3963 c-9 -58 11 -169 42 -230 34 -68 104 -132 170 -156 92 -33
351 -48 475 -27 88 14 124 49 130 127 l3 32 -240 3 c-218 3 -244 6 -285 24
-52 25 -86 58 -95 96 l-7 26 199 4 c246 4 255 8 277 111 l6 27 -334 0 -334 0
-7 -37z"/>
</g>
</svg>
